<svg width="19" height="16" viewBox="0 0 19 16" xmlns="http://www.w3.org/2000/svg"><path d="M15.625 1.276C14.93.49 13.941 0 12.847 0 10.744 0 9.04 1.81 9.04 4.04c0 .316.034.625.098.92C5.975 4.791 3.17 3.183 1.293.738A4.2 4.2 0 0 0 .778 2.77c0 1.402.673 2.639 1.693 3.363a3.641 3.641 0 0 1-1.724-.507v.05c0 1.957 1.312 3.59 3.053 3.962a3.6 3.6 0 0 1-1.72.069c.485 1.605 1.89 2.773 3.555 2.806A7.364 7.364 0 0 1 0 14.185 10.33 10.33 0 0 0 5.835 16c7.001 0 10.83-6.156 10.83-11.495 0-.175-.003-.35-.011-.523a7.948 7.948 0 0 0 1.901-2.09 7.261 7.261 0 0 1-2.186.637A4.019 4.019 0 0 0 18.043.295a7.384 7.384 0 0 1-2.418.981z"/></svg>